<svg width="45" height="45" viewBox="0 0 45 45" fill="none" xmlns="http://www.w3.org/2000/svg">
<g id="mingcute:arrow-up-fill" clip-path="url(#clip0_1_76)">
<g id="Group">
<path id="Vector" d="M24.4875 6.15566C23.9602 5.62897 23.2453 5.33313 22.5 5.33313C21.7547 5.33313 21.0399 5.62897 20.5125 6.15566L9.90191 16.7607C9.37429 17.2883 9.07788 18.0039 9.07788 18.75C9.07788 19.4962 9.37429 20.2118 9.90191 20.7394C10.4295 21.267 11.1451 21.5634 11.8913 21.5634C12.6374 21.5634 13.353 21.267 13.8807 20.7394L19.6875 14.9344L19.6875 36.5625C19.6875 37.3084 19.9838 38.0238 20.5113 38.5513C21.0387 39.0787 21.7541 39.375 22.5 39.375C23.246 39.375 23.9613 39.0787 24.4888 38.5513C25.0162 38.0238 25.3125 37.3084 25.3125 36.5625L25.3125 14.9344L31.1175 20.7394C31.3788 21.0007 31.6889 21.2079 32.0303 21.3493C32.3716 21.4907 32.7374 21.5634 33.1069 21.5634C33.4764 21.5634 33.8422 21.4907 34.1835 21.3493C34.5249 21.2079 34.835 21.0007 35.0963 20.7394C35.3575 20.4782 35.5648 20.168 35.7062 19.8267C35.8475 19.4853 35.9203 19.1195 35.9203 18.75C35.9203 18.3806 35.8475 18.0147 35.7062 17.6734C35.5648 17.332 35.3575 17.0219 35.0963 16.7607L24.4875 6.15566Z" fill="#222222"/>
</g>
</g>
<defs>
<clipPath id="clip0_1_76">
<rect width="45" height="45" fill="white"/>
</clipPath>
</defs>
</svg>
