<svg width="37" height="19" fill="none" xmlns="http://www.w3.org/2000/svg"><path d="M5.208 4.08H.36V.216h14.88V4.08h-4.848V18H5.208V4.08Zm30.785 9.672c.56.512.84 1.144.84 1.896s-.28 1.384-.84 1.896c-.56.512-1.264.768-2.112.768-.832 0-1.536-.256-2.112-.768a2.467 2.467 0 0 1-.84-1.896c0-.752.28-1.384.84-1.896.576-.512 1.28-.768 2.112-.768.848 0 1.552.256 2.112.768Z" fill="#E11F1F"/><path d="M18.225.216h4.368c1.664 0 2.976.392 3.936 1.176.976.768 1.464 1.832 1.464 3.192 0 1.024-.288 1.88-.864 2.568-.576.688-1.36 1.136-2.352 1.344 1.264.176 2.264.672 3 1.488.752.8 1.128 1.832 1.128 3.096 0 1.504-.536 2.704-1.608 3.6-1.056.88-2.496 1.32-4.32 1.32h-4.752V.216Zm.648 17.208h4.08c1.632 0 2.92-.384 3.864-1.152.96-.768 1.44-1.832 1.44-3.192 0-1.328-.464-2.368-1.392-3.12-.928-.752-2.2-1.128-3.816-1.128h-4.176v8.592Zm4.104-9.168c1.376 0 2.44-.32 3.192-.96.768-.656 1.152-1.552 1.152-2.688 0-1.184-.424-2.112-1.272-2.784-.848-.688-2.008-1.032-3.48-1.032h-3.696v7.464h4.104Z" fill="#fff"/></svg>